<svg xmlns="http://www.w3.org/2000/svg" width="284" height="59" viewBox="0 0 284 59" fill="none"><path d="M82.7424 39.9169H78.2407C78.0156 39.9169 77.9218 39.8202 77.9218 39.6007C77.9218 39.2846 78.0193 38.3808 78.0193 34.6316C78.0193 30.8824 77.9218 24.3734 77.9218 24.0759C77.9218 23.8527 78.0193 23.7597 78.2407 23.7597H85.9837C88.3321 23.7597 89.465 23.9197 90.6467 24.2507C93.314 25.0578 94.6233 26.9584 94.6233 29.934C94.6233 32.545 93.9368 34.3489 91.7984 35.7102C90.0427 36.867 87.9982 37.0715 85.4922 37.105C84.7757 37.105 84.0554 37.0715 83.2714 37.0715C83.0463 37.0715 82.9525 37.1682 82.9525 37.3877C82.9525 38.258 83.05 39.2883 83.05 39.5896C83.05 39.8128 82.9525 39.9057 82.7312 39.9057L82.7462 39.9206L82.7424 39.9169ZM83.6503 25.7831C83.2339 25.8463 83.0275 26.0992 82.9975 26.527C82.9 27.8883 82.9638 30.8787 82.9638 34.5981C82.9638 34.7878 83.0613 34.8845 83.2826 34.9143C83.7778 35.011 84.4793 35.0742 85.2634 34.9775C86.3026 34.8845 87.3079 34.6279 87.9607 34.1369C88.9023 33.4265 89.3637 32.0801 89.3637 30.0679C89.3637 28.0557 89.0111 26.9659 87.9907 26.315C87.2704 25.8575 86.4901 25.731 85.5147 25.6975C84.7982 25.6678 84.1417 25.6975 83.6615 25.7943L83.6465 25.7794L83.6503 25.7831Z" fill="#FFFFFF"></path><path d="M95.8499 39.6155C95.6248 39.6155 95.531 39.5225 95.531 39.2994C95.531 39.2027 95.5648 39.013 95.6586 38.8084C96.919 35.1373 98.7573 29.3908 99.8564 27.0625C100.862 25.0056 101.117 23.7708 104.373 23.7708C107.629 23.7708 108.14 25.4817 108.89 27.3154C109.993 29.8967 111.366 34.3451 112.866 38.8084C112.964 39.0316 112.994 39.2027 112.994 39.2994C112.994 39.5225 112.896 39.6155 112.675 39.6155H108.188C107.963 39.6155 107.836 39.5225 107.791 39.2994C107.502 38.3323 107.138 36.878 106.785 35.7845C106.722 35.5614 106.56 35.4684 106.324 35.4684C104.171 35.3754 101.661 35.3754 99.5226 35.4684C99.2337 35.4684 99.0911 35.5651 99.0611 35.7845L98.0857 39.2994C98.022 39.5225 97.8944 39.6155 97.7331 39.6155H95.8499ZM105.746 33.3966C105.971 33.3966 106.065 33.2702 106.001 33.047C105.649 31.9535 105.026 29.5954 104.467 27.9514C104.006 26.7017 103.78 26.0843 103.064 26.0843C102.347 26.0843 101.995 26.6385 101.5 27.9849C100.941 29.4392 100.239 31.5927 99.8377 33.0507C99.7739 33.2739 99.8714 33.4004 100.093 33.4004C101.976 33.4971 103.604 33.4971 105.761 33.4004H105.746V33.3966Z" fill="#FFFFFF"></path><path d="M115.102 39.6155C114.877 39.6155 114.783 39.5226 114.783 39.2994V24.3882C114.783 24.1651 114.881 24.0721 115.102 24.0721H122.811C124.214 24.0721 125.764 24.1688 126.754 24.5333C128.607 25.2474 129.421 26.7017 129.421 28.5689C129.421 31.0237 127.891 32.3515 126.004 32.8574C125.749 32.9541 125.542 32.9838 125.749 33.2702C126.66 34.6315 128.877 37.7186 129.853 38.92C129.98 39.0799 130.108 39.2696 130.108 39.3775C130.108 39.5374 130.01 39.6007 129.853 39.6007H124.552C124.327 39.6007 124.154 39.4742 123.993 39.2213C123.051 37.3541 121.389 34.1257 120.482 32.6677C120.354 32.4445 120.388 32.2102 120.673 32.2102C120.898 32.2102 121.453 32.2734 122.204 32.1767C124.248 32.0168 124.552 30.7522 124.552 28.9148C124.552 27.3005 124.027 26.5232 122.988 26.1773C122.267 25.9541 121.517 25.9541 120.737 25.9876C119.889 26.0173 119.668 26.3372 119.57 26.9844C119.57 27.3786 119.506 28.4387 119.506 31.8271C119.506 35.2155 119.604 38.9349 119.604 39.2808C119.604 39.504 119.506 39.5969 119.285 39.5969H115.087L115.102 39.6118V39.6155Z" fill="#FFFFFF"></path><path d="M144.682 27.6205C144.029 26.7167 143.182 25.6269 141.01 25.6269C138.121 25.6269 136.587 27.7619 136.587 31.8458C136.587 35.9297 138.151 38.0646 140.784 38.0646C143.418 38.0646 144.521 36.8782 145.11 36.0376C145.335 35.6879 145.571 35.9111 145.571 36.1975V37.8117C145.571 38.1614 145.508 38.3957 145.282 38.5556C144.66 39.0466 142.776 39.9169 140.143 39.9169C134.508 39.9169 131.552 36.3723 131.552 31.9871C131.552 27.1742 134.872 23.756 140.398 23.756C143.032 23.756 144.66 24.34 145.444 24.9425C145.699 25.1657 145.699 25.2922 145.699 25.4967C145.699 25.7496 145.41 26.6535 145.14 27.5238C145.042 27.8734 144.885 27.9032 144.678 27.6205H144.682Z" fill="#FFFFFF"></path><path d="M159.816 39.2995C159.816 39.5227 159.718 39.6156 159.497 39.6156H152.951C152.298 39.6156 150.797 39.5859 150.092 39.426C149.244 39.2028 148.494 38.8085 147.905 37.7782C147.522 37.0641 147.41 36.1938 147.41 34.7395V28.9632C147.41 27.9664 147.443 26.7613 147.905 25.9245C148.288 25.214 148.88 24.6264 150.092 24.2767C150.681 24.1168 152.313 24.0871 152.951 24.0871H159.336C159.561 24.0871 159.654 24.1838 159.654 24.4032V25.9542C159.654 26.1774 159.557 26.2704 159.336 26.2704C159.174 26.2704 157.261 26.0472 155.918 26.0472C155.198 26.0472 154.879 26.0472 154.226 26.1439C152.887 26.3671 152.47 27.1109 152.343 28.011C152.215 28.9149 152.245 30.0047 152.245 30.5923C152.245 30.8155 152.343 30.9085 152.564 30.9085C153.54 30.9085 154.384 30.9085 155.487 30.8787C156.953 30.8452 158.248 30.782 158.454 30.782C158.743 30.782 158.773 30.8787 158.773 31.0982V32.6826C158.773 32.8723 158.679 32.969 158.454 32.969C158.296 32.969 157.081 32.9058 155.487 32.8761C154.447 32.8426 153.667 32.8426 152.564 32.8426C152.343 32.8426 152.245 32.9393 152.245 33.1587C152.245 34.1258 152.245 34.9626 152.343 35.74C152.5 36.8633 152.996 37.3877 154.226 37.6072C154.849 37.7001 155.295 37.7001 155.918 37.7001C157.674 37.7001 159.272 37.477 159.493 37.477C159.714 37.477 159.812 37.5737 159.812 37.7931V39.3441V39.2958L159.816 39.2995Z" fill="#FFFFFF"></path><path d="M172.27 39.2994C172.27 39.5225 172.177 39.6155 171.952 39.6155H168.185C166.591 39.6155 165.87 39.5225 165.023 39.3626C163.92 39.1394 162.869 38.7154 162.228 37.8116C161.511 36.7813 161.448 35.4832 161.448 33.9025V24.3919C161.448 24.1688 161.541 24.0758 161.766 24.0758H166.156C166.381 24.0758 166.474 24.1725 166.474 24.3919C166.474 24.7416 166.377 26.3223 166.377 26.3223C166.377 30.4211 166.441 32.225 166.441 33.936C166.474 35.2006 166.568 36.2308 167.161 36.878C167.622 37.3987 168.421 37.6851 169.476 37.6851C170.451 37.6851 171.584 37.4322 171.952 37.4322C172.177 37.4322 172.27 37.5289 172.27 37.7484V39.2994Z" fill="#FFFFFF"></path><path d="M174.409 39.6155C174.184 39.6155 174.09 39.5225 174.09 39.2994C174.09 39.2027 174.12 39.013 174.218 38.8084C175.478 35.1373 177.317 29.3908 178.416 27.0625C179.421 25.0056 180.171 23.7708 182.933 23.7708C185.694 23.7708 186.699 25.4817 187.449 27.3154C188.552 29.8967 189.925 34.3451 191.426 38.8084C191.523 39.0316 191.553 39.2027 191.553 39.2994C191.553 39.5225 191.456 39.6155 191.234 39.6155H186.748C186.523 39.6155 186.395 39.5225 186.35 39.2994C186.061 38.3323 185.697 36.878 185.345 35.7845C185.281 35.5614 185.12 35.4684 184.883 35.4684C182.73 35.3754 180.22 35.3754 178.082 35.4684C177.793 35.4684 177.65 35.5651 177.62 35.7845L176.645 39.2994C176.581 39.5225 176.454 39.6155 176.292 39.6155H174.409ZM184.306 33.3966C184.531 33.3966 184.624 33.2702 184.561 33.047C184.208 31.9535 183.585 29.5954 183.03 27.9514C182.569 26.7017 182.344 26.0843 181.627 26.0843C180.91 26.0843 180.558 26.6385 180.063 27.9849C179.504 29.4392 178.802 31.5927 178.401 33.0507C178.337 33.2739 178.431 33.4004 178.656 33.4004C180.539 33.4971 182.167 33.4971 184.324 33.4004H184.309L184.306 33.3966Z" fill="#FFFFFF"></path><path d="M216.94 39.6155C216.715 39.6155 216.587 39.5226 216.587 39.2994V24.3882C216.587 24.1651 216.685 24.0721 216.906 24.0721H221.231C221.457 24.0721 221.55 24.1688 221.55 24.3882C221.55 24.7379 221.502 28.4238 221.502 31.842C221.502 35.2601 221.55 38.9498 221.55 39.2957C221.55 39.5188 221.453 39.6118 221.231 39.6118H216.936L216.94 39.6155Z" fill="#FFFFFF"></path><path d="M202.38 39.6156H199.011C198.85 39.6156 198.786 39.5227 198.786 39.3627V24.3102C198.786 24.1503 198.85 24.0871 199.011 24.0871H205.348C207.358 24.0871 208.986 24.1354 210.791 24.8309C213.601 25.891 215.004 28.0445 215.004 31.5743C215.004 35.104 213.199 37.7634 210.438 38.8234C208.746 39.4706 207.58 39.6156 205.201 39.6156H202.343H202.376H202.38ZM203.959 25.467C203.641 25.5451 203.592 25.705 203.592 25.9579C203.592 26.3224 203.543 29.1864 203.543 31.8941C203.543 34.6019 203.543 37.4026 203.607 37.7968C203.671 38.1279 203.813 38.1762 204.2 38.2543C204.391 38.3027 204.47 38.3027 204.744 38.3027C206.661 38.2395 207.73 37.7336 208.525 36.8149C209.437 35.7549 210.011 34.0291 210.011 31.7825C210.011 29.3463 209.437 26.9399 207.681 26.036C206.769 25.6083 206.323 25.4037 205.254 25.4037C204.68 25.4037 204.248 25.4037 203.959 25.467Z" fill="#FFFFFF"></path><path d="M223.673 39.6155C223.448 39.6155 223.354 39.5225 223.354 39.2994C223.354 39.2027 223.388 39.013 223.482 38.8084C224.742 35.1373 226.58 29.3908 227.679 27.0625C228.685 25.0056 229.435 23.7708 232.196 23.7708C234.957 23.7708 235.963 25.4817 236.713 27.3154C237.816 29.8967 239.189 34.3451 240.689 38.8084C240.787 39.0316 240.817 39.2027 240.817 39.2994C240.817 39.5225 240.719 39.6155 240.498 39.6155H236.011C235.786 39.6155 235.659 39.5225 235.595 39.2994C235.306 38.3323 234.942 36.878 234.59 35.7845C234.526 35.5614 234.364 35.4684 234.128 35.4684C231.975 35.3754 229.465 35.3754 227.327 35.4684C227.038 35.4684 226.895 35.5651 226.865 35.7845L225.89 39.2994C225.826 39.5225 225.699 39.6155 225.537 39.6155H223.654H223.669H223.673ZM233.573 33.3966C233.798 33.3966 233.892 33.2702 233.828 33.047C233.475 31.9535 232.853 29.5954 232.294 27.9514C231.832 26.7017 231.607 26.0843 230.891 26.0843C230.174 26.0843 229.821 26.6385 229.326 27.9849C228.767 29.4392 228.066 31.5927 227.664 33.0507C227.601 33.2739 227.698 33.4004 227.92 33.4004C229.803 33.4971 231.431 33.4971 233.588 33.4004H233.573V33.3966Z" fill="#FFFFFF"></path><path d="M242.959 39.6155C242.734 39.6155 242.64 39.5225 242.64 39.2994C242.64 38.9497 242.625 35.2638 242.625 31.8456C242.625 28.4275 242.64 24.7378 242.64 24.3919C242.64 24.1688 242.738 24.0758 242.959 24.0758H250.669C252.072 24.0758 253.621 24.1725 254.611 24.537C256.465 25.2511 257.279 26.7054 257.279 28.5726C257.279 31.0274 255.744 32.3552 253.861 32.861C253.606 32.9578 253.4 32.9875 253.606 33.2739C254.518 34.6352 256.735 37.7223 257.71 38.9237C257.838 39.0836 257.965 39.2733 257.965 39.3812C257.965 39.5411 257.868 39.6044 257.71 39.6044H252.409C252.184 39.6044 252.012 39.4779 251.85 39.225C250.909 37.3578 249.247 34.1294 248.339 32.6714C248.211 32.4482 248.241 32.2139 248.53 32.2139C248.755 32.2139 249.311 32.2771 250.061 32.1804C252.105 32.0205 252.409 30.7559 252.409 28.9185C252.409 27.3042 251.884 26.5269 250.845 26.181C250.125 25.9578 249.374 25.9578 248.594 25.9913C247.746 26.021 247.525 26.3409 247.427 26.9881C247.427 27.3823 247.364 28.4424 247.364 31.8308C247.364 35.2192 247.461 38.9386 247.461 39.2845C247.461 39.5077 247.364 39.6006 247.142 39.6006H242.944L242.959 39.6155Z" fill="#FFFFFF"></path><path d="M260.137 39.6155C259.912 39.6155 259.784 39.5226 259.784 39.2994V24.3882C259.784 24.1651 259.882 24.0721 260.103 24.0721H264.428C264.654 24.0721 264.747 24.1688 264.747 24.3882V39.2994C264.747 39.5226 264.65 39.6155 264.428 39.6155H260.133H260.137Z" fill="#FFFFFF"></path><path d="M266.856 39.6155C266.631 39.6155 266.537 39.5225 266.537 39.2994C266.537 39.2027 266.567 39.013 266.665 38.8084C267.925 35.1373 269.764 29.3908 270.863 27.0625C271.868 25.0056 272.618 23.7708 275.38 23.7708C278.141 23.7708 279.146 25.4817 279.896 27.3154C280.999 29.8967 282.372 34.3451 283.873 38.8084C283.97 39.0316 284 39.2027 284 39.2994C284 39.5225 283.903 39.6155 283.681 39.6155H279.195C278.97 39.6155 278.842 39.5225 278.778 39.2994C278.489 38.3323 278.126 36.878 277.773 35.7845C277.709 35.5614 277.548 35.4684 277.312 35.4684C275.158 35.3754 272.648 35.3754 270.51 35.4684C270.221 35.4684 270.079 35.5651 270.049 35.7845L269.073 39.2994C269.01 39.5225 268.882 39.6155 268.721 39.6155H266.837H266.852H266.856ZM276.771 33.3966C276.996 33.3966 277.09 33.2702 277.026 33.047C276.674 31.9535 276.051 29.5954 275.492 27.9514C275.031 26.7017 274.806 26.0843 274.089 26.0843C273.372 26.0843 273.02 26.6385 272.525 27.9849C271.966 29.4392 271.264 31.5927 270.863 33.0507C270.799 33.2739 270.897 33.4004 271.118 33.4004C273.001 33.4971 274.629 33.4971 276.786 33.4004H276.771V33.3966Z" fill="#FFFFFF"></path><path d="M229.611 21.1635V19.3894C229.611 18.9468 229.979 18.5823 230.425 18.5823H235.07C235.516 18.5823 235.884 18.9468 235.884 19.3894V19.832C235.884 20.1333 235.726 20.4011 235.452 20.5424L232.976 21.8702C232.864 21.9335 232.721 21.9669 232.594 21.9669H230.422C229.975 21.9669 229.608 21.6024 229.608 21.1598L229.611 21.1635Z" fill="#FFFFFF"></path><path d="M54.5798 0H6.64007C2.97865 0 0 2.95322 0 6.58338V51.9157C0 55.5458 2.97865 58.4991 6.64007 58.4991H36.828C37.2031 58.4991 37.5333 58.4767 37.8296 58.4284C39.2552 58.209 40.4069 57.1229 40.767 55.6611L41.6599 51.9603C41.945 50.8036 42.9241 49.937 44.0945 49.8031L57.6223 48.1702L57.7536 48.0996C59.8919 46.9503 61.2237 44.7298 61.2237 42.3084V6.58338C61.2237 2.95322 58.2413 0 54.5798 0ZM23.2027 47.8355C23.2027 48.4083 22.7338 48.8769 22.1523 48.8769C21.8109 48.8769 21.5071 48.7133 21.3157 48.4641L21.2745 48.4046L13.1001 36.8334L13.0138 36.7107C12.7962 36.3797 12.6686 35.9817 12.6686 35.554C12.6686 35.1262 12.7962 34.7208 13.0213 34.3861L13.0888 34.2931L13.0963 34.2819L21.2857 22.6885V22.681C21.4808 22.4058 21.7959 22.2273 22.1561 22.2273C22.7375 22.2273 23.2065 22.6922 23.2065 23.2687V47.8392L23.2027 47.8355ZM47.2645 29.681C46.3417 31.6709 44.8636 33.3335 42.6277 34.7692C38.9363 37.1719 34.6634 37.6406 29.3664 37.7038C28.6273 37.7038 27.8733 37.6889 27.1192 37.674C26.8791 37.674 26.6766 37.4732 26.6766 37.2165V33.8802C26.6766 33.6236 26.8791 33.4227 27.138 33.4227C27.6744 33.4227 28.2597 33.4078 28.8599 33.3297C31.047 33.1252 33.1891 32.5933 34.5884 31.537C36.5991 30.0046 37.5895 27.0737 37.5895 22.8744C37.5895 18.6789 36.8655 16.2725 34.6446 14.8777C33.1178 13.8846 31.4522 13.6205 29.3889 13.5573C28.4885 13.5089 14.9345 13.5722 13.7266 13.5722C13.4677 13.5722 13.2651 13.3713 13.2651 13.1296V10.0759C13.2651 9.84903 13.4377 9.66678 13.6628 9.66678C16.0187 9.63702 29.3851 9.61843 30.3567 9.61843C35.2861 9.61843 37.6533 9.94201 40.1405 10.645V10.6747L40.193 10.6896C42.9954 11.5339 45.0812 12.9547 46.4692 14.9372C47.8572 16.9234 48.5513 19.4823 48.5513 22.6215C48.5513 25.3665 48.1874 27.6837 47.2645 29.6773V29.681Z" fill="#FFFFFF"></path></svg>